<svg width="172" height="47" viewBox="0 0 172 47" fill="none" xmlns="http://www.w3.org/2000/svg">
<path d="M11.6312 32.1387C7.04077 25.9735 7.52411 17.1983 13.1155 11.6067C19.2577 5.46443 29.2512 5.46443 35.3934 11.6067C41.5355 17.749 41.5355 27.7428 35.3934 33.8851C29.802 39.4767 21.0257 39.96 14.8619 35.3695L3.90038 46.3313C3.00875 47.2229 1.56257 47.2229 0.669672 46.3313C-0.223224 45.4384 -0.223224 43.9921 0.669672 43.1005L11.6312 32.1387ZM15.2702 31.7304C20.2243 36.6847 28.2858 36.6847 33.24 31.7304C38.1942 26.7761 38.1942 18.7144 33.24 13.7602C28.2858 8.80587 20.2243 8.80587 15.2702 13.7602C10.316 18.7144 10.316 26.7761 15.2702 31.7304Z" fill="#D0F3F2"/>
<mask id="mask0_312_455" style="mask-type:luminance" maskUnits="userSpaceOnUse" x="41" y="6" width="12" height="12">
<path d="M52.7256 6.27441V17.7256H41.2744V6.27441H52.7256Z" fill="white" stroke="white" stroke-width="0.548872"/>
</mask>
<g mask="url(#mask0_312_455)">
<path d="M47 6.9668C47.395 8.28228 47.7867 9.35477 48.4941 10.1914C49.1948 11.02 50.1817 11.5973 51.7061 12C50.1817 12.4027 49.1948 12.98 48.4941 13.8086C47.7869 14.645 47.3949 15.7172 47 17.0322C46.6052 15.7172 46.2139 14.645 45.5068 13.8086C44.8062 12.9798 43.8192 12.4027 42.2949 12C43.8192 11.5973 44.8062 11.0202 45.5068 10.1914C46.214 9.35482 46.6051 8.28218 47 6.9668Z" fill="#68D8D6" stroke="#F0FBFB" stroke-width="0.548872"/>
</g>
<mask id="mask1_312_455" style="mask-type:luminance" maskUnits="userSpaceOnUse" x="35" y="0" width="10" height="10">
<path d="M44.6572 0.342773V9.65723H35.3428V0.342773H44.6572Z" fill="white" stroke="white" stroke-width="0.68609"/>
</mask>
<g mask="url(#mask1_312_455)">
<path d="M39.999 1.2002C40.2961 2.13899 40.6204 2.93107 41.1572 3.56641C41.6982 4.20659 42.4337 4.66678 43.5059 5C42.4338 5.33303 41.6982 5.79267 41.1572 6.43262C40.6206 7.06752 40.296 7.85923 39.999 8.79785C39.7026 7.8594 39.3793 7.06744 38.8428 6.43262C38.3016 5.79242 37.5655 5.33307 36.4932 5C37.5656 4.66674 38.3016 4.20684 38.8428 3.56641C39.3795 2.93115 39.7025 2.13882 39.999 1.2002Z" fill="#68D8D6" stroke="#F0FBFB" stroke-width="0.68609"/>
</g>
<mask id="mask2_312_455" style="mask-type:luminance" maskUnits="userSpaceOnUse" x="12" y="17" width="25" height="10">
<path d="M12.3789 17.1406H36.6208V26.1406H12.3789V17.1406Z" fill="white"/>
</mask>
<g mask="url(#mask2_312_455)">
<path d="M36.5651 22.3339C36.5651 22.6081 36.1863 22.8296 35.7198 22.8296H32.3372C31.9729 22.8296 31.6494 22.6932 31.5352 22.4907L31.3259 22.1229L29.7747 25.7602C29.6833 25.974 29.3623 26.1265 28.9871 26.135C28.9763 26.1357 28.9655 26.1357 28.9546 26.1357C28.5915 26.1357 28.2668 25.9993 28.1526 25.7968L24.4442 19.2739L20.7369 25.7968C20.6179 26.0056 20.292 26.149 19.9012 26.135C19.5261 26.1265 19.205 25.974 19.1136 25.7602L17.5636 22.1229L17.3544 22.4907C17.239 22.6932 16.9155 22.8296 16.5523 22.8296H13.1686C12.702 22.8296 12.3232 22.6081 12.3232 22.3339C12.3232 22.0604 12.702 21.8382 13.1686 21.8382H15.9427L16.877 20.1936C16.9949 19.9847 17.3243 19.8476 17.7115 19.8554C18.0867 19.8638 18.409 20.0164 18.4991 20.2301L20.0503 23.8674L23.6421 17.5491C23.7576 17.3473 24.0798 17.2102 24.4442 17.2102C24.8085 17.2102 25.1308 17.3473 25.2462 17.5491L28.838 23.8674L30.3892 20.2301C30.4794 20.0164 30.8016 19.8638 31.1768 19.8554C31.564 19.8455 31.8935 19.9847 32.0113 20.1936L32.9457 21.8382H35.7198C36.1863 21.8382 36.5651 22.0604 36.5651 22.3339Z" fill="#68D8D6"/>
</g>
<path d="M58.36 30.5V16.5H63.32C66.3 16.5 67.96 17.94 67.96 20.2C67.96 21.8 67.08 22.78 65.76 23.24C67.24 23.52 68.54 24.48 68.54 26.5C68.54 28.98 66.78 30.5 63.46 30.5H58.36ZM63.4 18.08H60.1V22.58H63.4C65.2 22.58 66.22 21.74 66.22 20.32C66.22 18.92 65.22 18.08 63.4 18.08ZM63.46 24.14H60.1V28.92H63.46C65.62 28.92 66.76 28.02 66.76 26.58C66.76 25 65.54 24.14 63.46 24.14ZM75.2033 20.3H75.6633V21.9H74.8433C72.7033 21.9 72.1233 23.68 72.1233 25.3V30.5H70.4833V20.3H71.9033L72.1233 21.84C72.6033 21.06 73.3833 20.3 75.2033 20.3ZM81.1989 30.62C78.1389 30.62 76.1389 28.52 76.1389 25.4C76.1389 22.3 78.0989 20.18 80.9789 20.18C83.8589 20.18 85.7389 22 85.8189 25.02C85.8189 25.24 85.7989 25.48 85.7789 25.72H77.8589V25.86C77.9189 27.8 79.1389 29.16 81.0789 29.16C82.5189 29.16 83.6389 28.4 83.9789 27.08H85.6389C85.2389 29.12 83.5589 30.62 81.1989 30.62ZM77.9589 24.36H84.0589C83.8989 22.6 82.6989 21.62 80.9989 21.62C79.4989 21.62 78.1189 22.7 77.9589 24.36ZM96.7103 29H97.2303V30.5H96.3303C94.9703 30.5 94.5103 29.92 94.4903 28.92C93.8503 29.84 92.8303 30.62 91.0703 30.62C88.8303 30.62 87.3103 29.5 87.3103 27.64C87.3103 25.6 88.7303 24.46 91.4103 24.46H94.4103V23.76C94.4103 22.44 93.4703 21.64 91.8703 21.64C90.4303 21.64 89.4703 22.32 89.2703 23.36H87.6303C87.8703 21.36 89.4903 20.18 91.9503 20.18C94.5503 20.18 96.0503 21.48 96.0503 23.86V28.32C96.0503 28.86 96.2503 29 96.7103 29ZM94.4103 26.34V25.84H91.2503C89.7903 25.84 88.9703 26.38 88.9703 27.54C88.9703 28.54 89.8303 29.22 91.1903 29.22C93.2303 29.22 94.4103 28.04 94.4103 26.34ZM99.2511 27.84V21.8H97.4111V20.3H99.2511V17.44H100.891V20.3H103.531V21.8H100.891V27.82C100.891 28.68 101.191 29 102.071 29H103.691V30.5H101.911C99.9511 30.5 99.2511 29.64 99.2511 27.84ZM110.112 20.18C112.392 20.18 114.252 21.44 114.252 24.82V30.5H112.612V24.92C112.612 22.8 111.592 21.68 109.832 21.68C107.932 21.68 106.752 23.1 106.752 25.4V30.5H105.112V16.5H106.752V21.98C107.352 21.02 108.392 20.18 110.112 20.18ZM120.925 30.62C117.865 30.62 115.865 28.52 115.865 25.4C115.865 22.3 117.825 20.18 120.705 20.18C123.585 20.18 125.465 22 125.545 25.02C125.545 25.24 125.525 25.48 125.505 25.72H117.585V25.86C117.645 27.8 118.865 29.16 120.805 29.16C122.245 29.16 123.365 28.4 123.705 27.08H125.365C124.965 29.12 123.285 30.62 120.925 30.62ZM117.685 24.36H123.785C123.625 22.6 122.425 21.62 120.725 21.62C119.225 21.62 117.845 22.7 117.685 24.36ZM127.417 30.5V16.5H129.057V30.5H127.417ZM134.264 30.56L130.284 20.3H132.024L135.164 28.44L138.204 20.3H139.944L135.244 32.22C134.604 33.86 134.224 34.5 132.784 34.5H130.824V33H132.284C133.224 33 133.384 32.76 133.764 31.8L134.264 30.56ZM142.103 27.84V21.8H140.263V20.3H142.103V17.44H143.743V20.3H146.383V21.8H143.743V27.82C143.743 28.68 144.043 29 144.923 29H146.543V30.5H144.763C142.803 30.5 142.103 29.64 142.103 27.84ZM148.804 18.58C148.204 18.58 147.744 18.14 147.744 17.52C147.744 16.9 148.204 16.46 148.804 16.46C149.404 16.46 149.864 16.9 149.864 17.52C149.864 18.14 149.404 18.58 148.804 18.58ZM147.964 30.5V20.3H149.604V30.5H147.964ZM156.43 30.62C153.45 30.62 151.49 28.6 151.49 25.42C151.49 22.3 153.51 20.18 156.47 20.18C158.97 20.18 160.55 21.58 160.97 23.82H159.25C158.95 22.46 157.95 21.64 156.45 21.64C154.49 21.64 153.17 23.2 153.17 25.42C153.17 27.64 154.49 29.16 156.45 29.16C157.91 29.16 158.91 28.32 159.23 27.02H160.97C160.57 29.22 158.91 30.62 156.43 30.62ZM162.348 27.14H164.028C164.088 28.34 165.148 29.22 166.848 29.22C168.288 29.22 169.308 28.6 169.308 27.66C169.308 26.38 168.188 26.28 166.668 26.1C164.388 25.82 162.568 25.36 162.568 23.24C162.568 21.38 164.268 20.16 166.568 20.18C168.888 20.2 170.568 21.28 170.728 23.4H169.048C168.928 22.36 167.968 21.58 166.568 21.58C165.148 21.58 164.188 22.18 164.188 23.12C164.188 24.24 165.268 24.38 166.748 24.56C169.068 24.84 170.928 25.28 170.928 27.54C170.928 29.44 169.108 30.62 166.848 30.62C164.208 30.62 162.388 29.38 162.348 27.14Z" fill="#4EA2A1"/>
</svg>
