<svg width="53" height="47" viewBox="0 0 53 47" fill="none" xmlns="http://www.w3.org/2000/svg">
<path d="M11.6312 32.1387C7.04077 25.9735 7.52411 17.1983 13.1155 11.6067C19.2577 5.46443 29.2512 5.46443 35.3934 11.6067C41.5355 17.749 41.5355 27.7428 35.3934 33.8851C29.802 39.4767 21.0257 39.96 14.8619 35.3695L3.90038 46.3313C3.00875 47.2229 1.56257 47.2229 0.669672 46.3313C-0.223224 45.4384 -0.223224 43.9921 0.669672 43.1005L11.6312 32.1387ZM15.2702 31.7304C20.2243 36.6847 28.2858 36.6847 33.24 31.7304C38.1942 26.7761 38.1942 18.7144 33.24 13.7602C28.2858 8.80587 20.2243 8.80587 15.2702 13.7602C10.316 18.7144 10.316 26.7761 15.2702 31.7304Z" fill="#D0F3F2"/>
<mask id="mask0_2056_29" style="mask-type:luminance" maskUnits="userSpaceOnUse" x="41" y="6" width="12" height="12">
<path d="M52.7256 6.27441V17.7256H41.2744V6.27441H52.7256Z" fill="white" stroke="white" stroke-width="0.548872"/>
</mask>
<g mask="url(#mask0_2056_29)">
<path d="M47 6.9668C47.395 8.28228 47.7867 9.35477 48.4941 10.1914C49.1948 11.02 50.1817 11.5973 51.7061 12C50.1817 12.4027 49.1948 12.98 48.4941 13.8086C47.7869 14.645 47.3949 15.7172 47 17.0322C46.6052 15.7172 46.2139 14.645 45.5068 13.8086C44.8062 12.9798 43.8192 12.4027 42.2949 12C43.8192 11.5973 44.8062 11.0202 45.5068 10.1914C46.214 9.35482 46.6051 8.28218 47 6.9668Z" fill="#68D8D6" stroke="#F0FBFB" stroke-width="0.548872"/>
</g>
<mask id="mask1_2056_29" style="mask-type:luminance" maskUnits="userSpaceOnUse" x="35" y="0" width="10" height="10">
<path d="M44.6572 0.342773V9.65723H35.3428V0.342773H44.6572Z" fill="white" stroke="white" stroke-width="0.68609"/>
</mask>
<g mask="url(#mask1_2056_29)">
<path d="M39.999 1.2002C40.2961 2.13899 40.6204 2.93107 41.1572 3.56641C41.6982 4.20659 42.4337 4.66678 43.5059 5C42.4338 5.33303 41.6982 5.79267 41.1572 6.43262C40.6206 7.06752 40.296 7.85923 39.999 8.79785C39.7026 7.8594 39.3793 7.06744 38.8428 6.43262C38.3016 5.79242 37.5655 5.33307 36.4932 5C37.5656 4.66674 38.3016 4.20684 38.8428 3.56641C39.3795 2.93115 39.7025 2.13882 39.999 1.2002Z" fill="#68D8D6" stroke="#F0FBFB" stroke-width="0.68609"/>
</g>
<mask id="mask2_2056_29" style="mask-type:luminance" maskUnits="userSpaceOnUse" x="12" y="17" width="25" height="10">
<path d="M12.3789 17.1406H36.6208V26.1406H12.3789V17.1406Z" fill="white"/>
</mask>
<g mask="url(#mask2_2056_29)">
<path d="M36.5651 22.3339C36.5651 22.6081 36.1863 22.8296 35.7198 22.8296H32.3372C31.9729 22.8296 31.6494 22.6932 31.5352 22.4907L31.3259 22.1229L29.7747 25.7602C29.6833 25.974 29.3623 26.1265 28.9871 26.135C28.9763 26.1357 28.9655 26.1357 28.9546 26.1357C28.5915 26.1357 28.2668 25.9993 28.1526 25.7968L24.4442 19.2739L20.7369 25.7968C20.6179 26.0056 20.292 26.149 19.9012 26.135C19.5261 26.1265 19.205 25.974 19.1136 25.7602L17.5636 22.1229L17.3544 22.4907C17.239 22.6932 16.9155 22.8296 16.5523 22.8296H13.1686C12.702 22.8296 12.3232 22.6081 12.3232 22.3339C12.3232 22.0604 12.702 21.8382 13.1686 21.8382H15.9427L16.877 20.1936C16.9949 19.9847 17.3243 19.8476 17.7115 19.8554C18.0867 19.8638 18.409 20.0164 18.4991 20.2301L20.0503 23.8674L23.6421 17.5491C23.7576 17.3473 24.0798 17.2102 24.4442 17.2102C24.8085 17.2102 25.1308 17.3473 25.2462 17.5491L28.838 23.8674L30.3892 20.2301C30.4794 20.0164 30.8016 19.8638 31.1768 19.8554C31.564 19.8455 31.8935 19.9847 32.0113 20.1936L32.9457 21.8382H35.7198C36.1863 21.8382 36.5651 22.0604 36.5651 22.3339Z" fill="#68D8D6"/>
</g>
</svg>
