<svg width="543" height="131" viewBox="0 0 543 131" fill="none" xmlns="http://www.w3.org/2000/svg">
<path d="M0 20C0 8.95431 8.95431 0 20 0H523C534.046 0 543 8.95431 543 20V98C543 109.046 534.046 118 523 118H20C8.95429 118 0 109.046 0 98V20Z" fill="#444444"/>
<path d="M20 1H523V-1H20V1ZM542 20V98H544V20H542ZM523 117H20V119H523V117ZM1 98V20H-1V98H1ZM20 117C9.50658 117 1 108.493 1 98H-1C-1 109.598 8.40201 119 20 119V117ZM542 98C542 108.493 533.493 117 523 117V119C534.598 119 544 109.598 544 98H542ZM523 1C533.493 1 542 9.50659 542 20H544C544 8.40202 534.598 -1 523 -1V1ZM20 -1C8.40202 -1 -1 8.40202 -1 20H1C1 9.50659 9.50659 1 20 1V-1Z" fill="white" fill-opacity="0.1"/>
<g filter="url(#filter0_dddiii_229_87)">
<rect x="36" y="39" width="105" height="40" rx="20" fill="#54B2B0"/>
<rect x="36.5" y="39.5" width="104" height="39" rx="19.5" stroke="url(#paint0_radial_229_87)"/>
<path d="M60.4 54.3H69.056V55.58H65.424V65.5H64.032V55.58H60.4V54.3ZM68.6236 61.42C68.6236 60.588 68.7836 59.8573 69.1036 59.228C69.4343 58.5987 69.893 58.1133 70.4796 57.772C71.0663 57.42 71.7383 57.244 72.4956 57.244C73.2423 57.244 73.9036 57.3987 74.4796 57.708C75.0556 58.0173 75.509 58.4653 75.8396 59.052C76.1703 59.6387 76.3463 60.3267 76.3676 61.116C76.3676 61.2333 76.357 61.42 76.3356 61.676H69.9996V61.788C70.021 62.588 70.2663 63.228 70.7356 63.708C71.205 64.188 71.8183 64.428 72.5756 64.428C73.1623 64.428 73.6583 64.284 74.0636 63.996C74.4796 63.6973 74.757 63.2867 74.8956 62.764H76.2236C76.0636 63.596 75.6636 64.2787 75.0236 64.812C74.3836 65.3347 73.5996 65.596 72.6716 65.596C71.861 65.596 71.1516 65.4253 70.5436 65.084C69.9356 64.732 69.461 64.2413 69.1196 63.612C68.789 62.972 68.6236 62.2413 68.6236 61.42ZM75.0076 60.588C74.9436 59.8947 74.6823 59.356 74.2236 58.972C73.7756 58.588 73.205 58.396 72.5116 58.396C71.893 58.396 71.349 58.5987 70.8796 59.004C70.4103 59.4093 70.1436 59.9373 70.0796 60.588H75.0076ZM77.8648 54.3H79.1768V61.724L83.3208 57.34H84.8888L81.7528 60.684L85.1128 65.5H83.5288L80.8088 61.628L79.1768 63.34V65.5H77.8648V54.3ZM86.9044 62.812C86.9257 63.3027 87.139 63.7027 87.5444 64.012C87.9604 64.3213 88.4937 64.476 89.1444 64.476C89.7204 64.476 90.1844 64.364 90.5364 64.14C90.899 63.9053 91.0804 63.6013 91.0804 63.228C91.0804 62.908 90.995 62.6627 90.8244 62.492C90.6537 62.3213 90.4297 62.204 90.1524 62.14C89.8857 62.076 89.5017 62.012 89.0004 61.948C88.2964 61.8627 87.7204 61.7507 87.2724 61.612C86.8244 61.4733 86.4617 61.2547 86.1844 60.956C85.907 60.6467 85.7684 60.2253 85.7684 59.692C85.7684 59.212 85.9017 58.7853 86.1684 58.412C86.4457 58.0387 86.819 57.7507 87.2884 57.548C87.7577 57.3347 88.2857 57.228 88.8724 57.228C89.8324 57.228 90.611 57.452 91.2084 57.9C91.8164 58.348 92.1524 58.988 92.2164 59.82H90.9044C90.851 59.3933 90.643 59.0413 90.2804 58.764C89.9177 58.4867 89.4644 58.348 88.9204 58.348C88.3657 58.348 87.9177 58.4653 87.5764 58.7C87.235 58.924 87.0644 59.2227 87.0644 59.596C87.0644 59.8733 87.1444 60.0867 87.3044 60.236C87.4644 60.3853 87.667 60.4867 87.9124 60.54C88.1684 60.5933 88.5524 60.652 89.0644 60.716C89.779 60.8013 90.3657 60.9187 90.8244 61.068C91.2937 61.2173 91.667 61.4573 91.9444 61.788C92.2324 62.1187 92.3764 62.5667 92.3764 63.132C92.3764 63.6227 92.2324 64.0547 91.9444 64.428C91.6564 64.8013 91.267 65.0893 90.7764 65.292C90.2857 65.4947 89.7417 65.596 89.1444 65.596C88.0777 65.596 87.219 65.3507 86.5684 64.86C85.9284 64.3693 85.603 63.6867 85.5924 62.812H86.9044Z" fill="white"/>
<path d="M112.833 49.8333L111.783 52.1249L109.5 53.1666L111.783 54.2166L112.833 56.4999L113.875 54.2166L116.167 53.1666L113.875 52.1249M104.5 52.3333L102.417 56.9166L97.8335 58.9999L102.417 61.0833L104.5 65.6666L106.583 61.0833L111.167 58.9999L106.583 56.9166M112.833 61.4999L111.783 63.7833L109.5 64.8333L111.783 65.8749L112.833 68.1666L113.875 65.8749L116.167 64.8333L113.875 63.7833" fill="white"/>
</g>
<path d="M169 49C169 44.5817 172.582 41 177 41H296C300.418 41 304 44.5817 304 49V69C304 73.4183 300.418 77 296 77H177C172.582 77 169 73.4183 169 69V49Z" fill="url(#paint1_linear_229_87)"/>
<path d="M186.44 53.8C187.208 53.8 187.885 53.9493 188.472 54.248C189.059 54.536 189.512 54.952 189.832 55.496C190.152 56.0293 190.312 56.6533 190.312 57.368C190.312 58.0827 190.152 58.712 189.832 59.256C189.512 59.7893 189.059 60.2053 188.472 60.504C187.885 60.792 187.208 60.936 186.44 60.936H183.864V65H182.024V53.8H186.44ZM183.864 59.336H186.28C186.941 59.336 187.464 59.16 187.848 58.808C188.243 58.4453 188.44 57.9653 188.44 57.368C188.44 56.76 188.248 56.28 187.864 55.928C187.48 55.576 186.957 55.4 186.296 55.4H183.864V59.336ZM196.079 56.808V58.424H195.311C194.596 58.424 194.079 58.6587 193.759 59.128C193.439 59.5867 193.279 60.1733 193.279 60.888V65H191.551V56.808H193.087L193.279 58.04C193.514 57.656 193.818 57.3573 194.191 57.144C194.564 56.92 195.066 56.808 195.695 56.808H196.079ZM196.482 60.92C196.482 60.0773 196.647 59.3413 196.978 58.712C197.319 58.072 197.788 57.5813 198.386 57.24C198.994 56.888 199.687 56.712 200.466 56.712C201.255 56.712 201.948 56.872 202.546 57.192C203.154 57.512 203.628 57.9653 203.97 58.552C204.322 59.1387 204.503 59.8267 204.514 60.616C204.514 60.8293 204.498 61.048 204.466 61.272H198.289V61.368C198.332 62.0827 198.556 62.648 198.962 63.064C199.367 63.48 199.906 63.688 200.578 63.688C201.111 63.688 201.559 63.5653 201.922 63.32C202.284 63.064 202.524 62.7067 202.642 62.248H204.37C204.22 63.08 203.815 63.7627 203.154 64.296C202.503 64.8293 201.687 65.096 200.706 65.096C199.852 65.096 199.106 64.9253 198.466 64.584C197.836 64.232 197.346 63.7413 196.993 63.112C196.652 62.4827 196.482 61.752 196.482 60.92ZM202.754 60.008C202.679 59.4107 202.439 58.9467 202.034 58.616C201.639 58.2747 201.138 58.104 200.53 58.104C199.964 58.104 199.474 58.28 199.058 58.632C198.652 58.9733 198.418 59.432 198.354 60.008H202.754ZM213.863 53.8V65H212.359L212.151 63.768C211.5 64.6533 210.609 65.096 209.479 65.096C208.732 65.096 208.065 64.9307 207.479 64.6C206.892 64.2587 206.433 63.7733 206.103 63.144C205.772 62.504 205.607 61.7573 205.607 60.904C205.607 60.072 205.772 59.3413 206.103 58.712C206.444 58.072 206.908 57.5813 207.495 57.24C208.081 56.888 208.743 56.712 209.479 56.712C210.076 56.712 210.599 56.824 211.047 57.048C211.495 57.2613 211.857 57.56 212.135 57.944V53.8H213.863ZM209.766 63.64C210.481 63.64 211.057 63.3893 211.495 62.888C211.932 62.3867 212.151 61.736 212.151 60.936C212.151 60.1147 211.932 59.4533 211.495 58.952C211.057 58.44 210.481 58.184 209.766 58.184C209.052 58.184 208.476 58.44 208.039 58.952C207.601 59.4533 207.383 60.104 207.383 60.904C207.383 61.7147 207.601 62.376 208.039 62.888C208.476 63.3893 209.052 63.64 209.766 63.64ZM216.415 53.528C216.714 53.528 216.964 53.6293 217.167 53.832C217.37 54.024 217.471 54.2693 217.471 54.568C217.471 54.8667 217.37 55.1173 217.167 55.32C216.964 55.512 216.714 55.608 216.415 55.608C216.116 55.608 215.866 55.512 215.663 55.32C215.46 55.1173 215.359 54.8667 215.359 54.568C215.359 54.2693 215.46 54.024 215.663 53.832C215.866 53.6293 216.116 53.528 216.415 53.528ZM215.551 56.808H217.279V65H215.551V56.808ZM226.525 62.056C226.365 63.0053 225.954 63.752 225.293 64.296C224.632 64.8293 223.784 65.096 222.749 65.096C221.938 65.096 221.224 64.9253 220.605 64.584C219.986 64.232 219.506 63.736 219.165 63.096C218.834 62.456 218.669 61.72 218.669 60.888C218.669 60.056 218.84 59.3253 219.181 58.696C219.522 58.0667 220.002 57.5813 220.621 57.24C221.25 56.888 221.976 56.712 222.797 56.712C223.821 56.712 224.658 56.984 225.309 57.528C225.96 58.0613 226.365 58.792 226.525 59.72H224.749C224.632 59.2507 224.397 58.8773 224.045 58.6C223.693 58.3227 223.261 58.184 222.749 58.184C222.056 58.184 221.496 58.4347 221.069 58.936C220.653 59.4373 220.445 60.088 220.445 60.888C220.445 61.6987 220.653 62.36 221.069 62.872C221.496 63.3733 222.056 63.624 222.749 63.624C223.282 63.624 223.725 63.4853 224.077 63.208C224.429 62.92 224.658 62.536 224.765 62.056H226.525ZM228.439 58.328H227.014V56.808H228.439V54.52H230.183V56.808H232.151V58.328H230.183V62.6C230.183 62.92 230.247 63.1493 230.375 63.288C230.503 63.416 230.721 63.48 231.031 63.48H232.343V65H230.679C229.9 65 229.329 64.8187 228.967 64.456C228.615 64.0933 228.439 63.5333 228.439 62.776V58.328ZM241.684 56.712C242.654 56.712 243.444 57.0107 244.052 57.608C244.67 58.2053 244.98 59.1653 244.98 60.488V65H243.236V60.584C243.236 59.8053 243.07 59.2133 242.74 58.808C242.409 58.4027 241.924 58.2 241.284 58.2C240.601 58.2 240.062 58.44 239.668 58.92C239.284 59.3893 239.092 60.04 239.092 60.872V65H237.364V56.808H238.868L239.06 57.88C239.678 57.1013 240.553 56.712 241.684 56.712ZM250.423 65.096C249.602 65.096 248.871 64.9253 248.231 64.584C247.602 64.232 247.111 63.7413 246.759 63.112C246.418 62.472 246.247 61.736 246.247 60.904C246.247 60.0827 246.418 59.3573 246.759 58.728C247.111 58.088 247.602 57.592 248.231 57.24C248.871 56.888 249.602 56.712 250.423 56.712C251.244 56.712 251.97 56.888 252.599 57.24C253.239 57.592 253.73 58.088 254.071 58.728C254.423 59.3573 254.599 60.0827 254.599 60.904C254.599 61.736 254.423 62.472 254.071 63.112C253.73 63.7413 253.239 64.232 252.599 64.584C251.97 64.9253 251.244 65.096 250.423 65.096ZM250.423 63.624C251.148 63.624 251.73 63.3733 252.167 62.872C252.615 62.36 252.839 61.704 252.839 60.904C252.839 60.104 252.615 59.4533 252.167 58.952C251.73 58.44 251.148 58.184 250.423 58.184C249.698 58.184 249.116 58.44 248.679 58.952C248.242 59.4533 248.023 60.104 248.023 60.904C248.023 61.704 248.242 62.36 248.679 62.872C249.116 63.3733 249.698 63.624 250.423 63.624ZM254.97 56.808H256.794L258.666 63.08L260.538 56.808H262.122L263.914 63.08L265.85 56.808H267.61L264.89 65H263.034L261.306 59.432L259.514 65L257.642 65.016L254.97 56.808Z" fill="white"/>
<path d="M287.833 49.8333L286.783 52.1249L284.5 53.1666L286.783 54.2166L287.833 56.4999L288.875 54.2166L291.167 53.1666L288.875 52.1249M279.5 52.3333L277.417 56.9166L272.833 58.9999L277.417 61.0833L279.5 65.6666L281.583 61.0833L286.167 58.9999L281.583 56.9166M287.833 61.4999L286.783 63.7833L284.5 64.8333L286.783 65.8749L287.833 68.1666L288.875 65.8749L291.167 64.8333L288.875 63.7833" fill="white"/>
<path d="M340 44.5H421C425.142 44.5 428.5 47.8579 428.5 52V66C428.5 70.1421 425.142 73.5 421 73.5H340C335.858 73.5 332.5 70.1421 332.5 66V52C332.5 47.8579 335.858 44.5 340 44.5Z" fill="white"/>
<path d="M340 44.5H421C425.142 44.5 428.5 47.8579 428.5 52V66C428.5 70.1421 425.142 73.5 421 73.5H340C335.858 73.5 332.5 70.1421 332.5 66V52C332.5 47.8579 335.858 44.5 340 44.5Z" stroke="#68D8D6"/>
<path d="M348.564 55.2C349.703 55.2 350.585 55.424 351.21 55.872C351.835 56.32 352.148 56.9547 352.148 57.776C352.148 58.3827 351.98 58.8727 351.644 59.246C351.308 59.6193 350.832 59.862 350.216 59.974C350.944 60.0673 351.504 60.3007 351.896 60.674C352.297 61.0473 352.498 61.57 352.498 62.242C352.498 63.1007 352.171 63.7773 351.518 64.272C350.865 64.7573 349.941 65 348.746 65H344.84V55.2H348.564ZM346.94 59.232H348.62C349.068 59.232 349.418 59.1247 349.67 58.91C349.922 58.6953 350.048 58.406 350.048 58.042C350.048 57.678 349.922 57.3887 349.67 57.174C349.418 56.9593 349.068 56.852 348.62 56.852H346.94V59.232ZM346.94 63.334H348.76C349.264 63.334 349.651 63.2267 349.922 63.012C350.202 62.7973 350.342 62.4987 350.342 62.116C350.342 61.7147 350.202 61.4067 349.922 61.192C349.642 60.968 349.255 60.856 348.76 60.856H346.94V63.334ZM358.119 57.804V59.596H357.335C356.775 59.596 356.364 59.764 356.103 60.1C355.841 60.436 355.711 60.8933 355.711 61.472V65H353.737V57.804H355.529L355.711 58.882C355.925 58.5273 356.191 58.2613 356.509 58.084C356.826 57.8973 357.251 57.804 357.783 57.804H358.119ZM362.282 65.084C361.526 65.084 360.859 64.9347 360.28 64.636C359.711 64.328 359.267 63.894 358.95 63.334C358.642 62.774 358.488 62.13 358.488 61.402C358.488 60.674 358.642 60.03 358.95 59.47C359.267 58.91 359.711 58.4807 360.28 58.182C360.859 57.874 361.526 57.72 362.282 57.72C363.038 57.72 363.701 57.874 364.27 58.182C364.849 58.4807 365.292 58.91 365.6 59.47C365.917 60.03 366.076 60.674 366.076 61.402C366.076 62.1393 365.917 62.788 365.6 63.348C365.292 63.8987 364.849 64.328 364.27 64.636C363.701 64.9347 363.038 65.084 362.282 65.084ZM362.282 63.474C362.833 63.474 363.267 63.2827 363.584 62.9C363.911 62.5173 364.074 62.018 364.074 61.402C364.074 60.786 363.911 60.2867 363.584 59.904C363.267 59.5213 362.833 59.33 362.282 59.33C361.741 59.33 361.307 59.5213 360.98 59.904C360.663 60.2867 360.504 60.786 360.504 61.402C360.504 62.018 360.663 62.5173 360.98 62.9C361.307 63.2827 361.741 63.474 362.282 63.474ZM366.271 57.804H368.357L369.799 62.872L371.157 57.804H372.935L374.251 62.886L375.721 57.804H377.737L375.371 65H373.271L372.011 60.66L370.723 65H368.623L366.271 57.804ZM379.86 62.606C379.888 62.9233 380.042 63.18 380.322 63.376C380.602 63.572 380.962 63.67 381.4 63.67C381.82 63.67 382.152 63.6047 382.394 63.474C382.637 63.334 382.758 63.138 382.758 62.886C382.758 62.6993 382.702 62.5593 382.59 62.466C382.478 62.3727 382.32 62.3073 382.114 62.27C381.909 62.2233 381.573 62.172 381.106 62.116C380.472 62.032 379.944 61.9247 379.524 61.794C379.104 61.6633 378.768 61.458 378.516 61.178C378.264 60.898 378.138 60.5247 378.138 60.058C378.138 59.5913 378.264 59.1807 378.516 58.826C378.778 58.462 379.142 58.182 379.608 57.986C380.075 57.79 380.612 57.692 381.218 57.692C382.198 57.7013 382.987 57.9113 383.584 58.322C384.191 58.7327 384.518 59.302 384.564 60.03H382.688C382.66 59.7593 382.516 59.54 382.254 59.372C382.002 59.1947 381.676 59.106 381.274 59.106C380.901 59.106 380.598 59.176 380.364 59.316C380.14 59.456 380.028 59.6427 380.028 59.876C380.028 60.044 380.089 60.17 380.21 60.254C380.332 60.338 380.49 60.3987 380.686 60.436C380.882 60.4733 381.209 60.5153 381.666 60.562C382.637 60.674 383.379 60.884 383.892 61.192C384.415 61.4907 384.676 62.0087 384.676 62.746C384.676 63.2127 384.536 63.6233 384.256 63.978C383.986 64.3327 383.603 64.608 383.108 64.804C382.623 64.9907 382.058 65.084 381.414 65.084C380.416 65.084 379.604 64.8647 378.978 64.426C378.353 63.978 378.022 63.3713 377.984 62.606H379.86ZM385.531 61.416C385.531 60.6693 385.68 60.0207 385.979 59.47C386.287 58.91 386.712 58.4807 387.253 58.182C387.804 57.874 388.438 57.72 389.157 57.72C389.885 57.72 390.524 57.8647 391.075 58.154C391.635 58.434 392.069 58.8353 392.377 59.358C392.694 59.8713 392.858 60.478 392.867 61.178C392.867 61.43 392.848 61.654 392.811 61.85H387.589V61.906C387.636 62.4287 387.804 62.8393 388.093 63.138C388.382 63.4367 388.779 63.586 389.283 63.586C389.684 63.586 390.016 63.502 390.277 63.334C390.548 63.1567 390.725 62.9 390.809 62.564H392.755C392.68 63.04 392.498 63.4693 392.209 63.852C391.92 64.2347 391.537 64.538 391.061 64.762C390.585 64.9767 390.039 65.084 389.423 65.084C388.62 65.084 387.925 64.9347 387.337 64.636C386.758 64.3373 386.31 63.9127 385.993 63.362C385.685 62.802 385.531 62.1533 385.531 61.416ZM390.893 60.562C390.828 60.1233 390.646 59.7873 390.347 59.554C390.058 59.3113 389.689 59.19 389.241 59.19C388.812 59.19 388.448 59.316 388.149 59.568C387.86 59.8107 387.687 60.142 387.631 60.562H390.893ZM403.424 57.034C403.098 57.034 402.827 56.9267 402.612 56.712C402.398 56.4973 402.29 56.2313 402.29 55.914C402.29 55.5967 402.398 55.3353 402.612 55.13C402.827 54.9153 403.098 54.808 403.424 54.808C403.751 54.808 404.022 54.9153 404.236 55.13C404.46 55.3353 404.572 55.5967 404.572 55.914C404.572 56.2313 404.46 56.4973 404.236 56.712C404.022 56.9267 403.751 57.034 403.424 57.034ZM404.404 65H402.43V59.47H399.854V65H397.88V59.47H396.69V57.804H397.88V57.174C397.88 56.5393 398.062 56.054 398.426 55.718C398.79 55.3727 399.332 55.2 400.05 55.2H401.436V56.88H400.442C400.237 56.88 400.088 56.9267 399.994 57.02C399.901 57.1133 399.854 57.2627 399.854 57.468V57.804H404.404V65ZM405.772 55.2H407.746V65H405.772V55.2ZM408.842 61.416C408.842 60.6693 408.991 60.0207 409.29 59.47C409.598 58.91 410.022 58.4807 410.564 58.182C411.114 57.874 411.749 57.72 412.468 57.72C413.196 57.72 413.835 57.8647 414.386 58.154C414.946 58.434 415.38 58.8353 415.688 59.358C416.005 59.8713 416.168 60.478 416.178 61.178C416.178 61.43 416.159 61.654 416.122 61.85H410.9V61.906C410.946 62.4287 411.114 62.8393 411.404 63.138C411.693 63.4367 412.09 63.586 412.594 63.586C412.995 63.586 413.326 63.502 413.588 63.334C413.858 63.1567 414.036 62.9 414.12 62.564H416.066C415.991 63.04 415.809 63.4693 415.52 63.852C415.23 64.2347 414.848 64.538 414.372 64.762C413.896 64.9767 413.35 65.084 412.734 65.084C411.931 65.084 411.236 64.9347 410.648 64.636C410.069 64.3373 409.621 63.9127 409.304 63.362C408.996 62.802 408.842 62.1533 408.842 61.416ZM414.204 60.562C414.138 60.1233 413.956 59.7873 413.658 59.554C413.368 59.3113 413 59.19 412.552 59.19C412.122 59.19 411.758 59.316 411.46 59.568C411.17 59.8107 410.998 60.142 410.942 60.562H414.204Z" fill="#68D8D6"/>
<path d="M461 41.5H508C512.142 41.5 515.5 44.8579 515.5 49V63C515.5 67.1421 512.142 70.5 508 70.5H461C456.858 70.5 453.5 67.1421 453.5 63V49C453.5 44.8579 456.858 41.5 461 41.5Z" fill="white"/>
<path d="M461 41.5H508C512.142 41.5 515.5 44.8579 515.5 49V63C515.5 67.1421 512.142 70.5 508 70.5H461C456.858 70.5 453.5 67.1421 453.5 63V49C453.5 44.8579 456.858 41.5 461 41.5Z" stroke="#EAEAEA"/>
<path d="M465.384 56.8C465.384 55.944 465.548 55.196 465.876 54.556C466.212 53.908 466.688 53.408 467.304 53.056C467.928 52.704 468.66 52.528 469.5 52.528C470.156 52.528 470.744 52.656 471.264 52.912C471.784 53.168 472.204 53.528 472.524 53.992C472.844 54.456 473.036 54.992 473.1 55.6H471.3C471.196 55.12 470.976 54.744 470.64 54.472C470.312 54.192 469.9 54.052 469.404 54.052C468.732 54.052 468.2 54.304 467.808 54.808C467.416 55.312 467.22 55.976 467.22 56.8C467.22 57.616 467.416 58.28 467.808 58.792C468.2 59.296 468.732 59.548 469.404 59.548C469.9 59.548 470.312 59.412 470.64 59.14C470.976 58.86 471.196 58.48 471.3 58H473.1C473.036 58.608 472.844 59.144 472.524 59.608C472.204 60.072 471.784 60.432 471.264 60.688C470.744 60.944 470.156 61.072 469.5 61.072C468.66 61.072 467.928 60.896 467.304 60.544C466.688 60.192 466.212 59.696 465.876 59.056C465.548 58.408 465.384 57.656 465.384 56.8ZM480.086 59.572V61H479.222C478.446 61 478.066 60.664 478.082 59.992C477.858 60.344 477.582 60.612 477.254 60.796C476.926 60.98 476.53 61.072 476.066 61.072C475.378 61.072 474.822 60.916 474.398 60.604C473.982 60.284 473.774 59.836 473.774 59.26C473.774 58.604 474.014 58.1 474.494 57.748C474.982 57.388 475.686 57.208 476.606 57.208H477.83V56.908C477.83 56.628 477.726 56.408 477.518 56.248C477.31 56.08 477.03 55.996 476.678 55.996C476.366 55.996 476.11 56.064 475.91 56.2C475.71 56.336 475.59 56.52 475.55 56.752H473.918C473.974 56.12 474.254 55.632 474.758 55.288C475.262 54.936 475.93 54.76 476.762 54.76C477.634 54.76 478.306 54.952 478.778 55.336C479.258 55.72 479.498 56.276 479.498 57.004V59.176C479.498 59.328 479.53 59.432 479.594 59.488C479.658 59.544 479.758 59.572 479.894 59.572H480.086ZM477.83 58.336H476.594C476.242 58.336 475.966 58.408 475.766 58.552C475.574 58.688 475.478 58.884 475.478 59.14C475.478 59.356 475.558 59.528 475.718 59.656C475.886 59.784 476.11 59.848 476.39 59.848C476.83 59.848 477.178 59.724 477.434 59.476C477.69 59.22 477.822 58.88 477.83 58.456V58.336ZM484.28 54.76C485 54.76 485.592 54.984 486.056 55.432C486.52 55.88 486.752 56.62 486.752 57.652V61H485.06V57.748C485.06 56.684 484.644 56.152 483.812 56.152C483.372 56.152 483.032 56.3 482.792 56.596C482.552 56.892 482.432 57.308 482.432 57.844V61H480.74V54.832H482.216L482.372 55.6C482.588 55.336 482.848 55.132 483.152 54.988C483.456 54.836 483.832 54.76 484.28 54.76ZM493.746 58.66C493.634 59.412 493.314 60.004 492.786 60.436C492.266 60.86 491.59 61.072 490.758 61.072C490.118 61.072 489.558 60.944 489.078 60.688C488.598 60.424 488.226 60.052 487.962 59.572C487.706 59.092 487.578 58.54 487.578 57.916C487.578 57.284 487.706 56.732 487.962 56.26C488.226 55.78 488.598 55.412 489.078 55.156C489.566 54.892 490.13 54.76 490.77 54.76C491.594 54.76 492.266 54.972 492.786 55.396C493.306 55.812 493.626 56.392 493.746 57.136H491.994C491.922 56.832 491.778 56.592 491.562 56.416C491.346 56.232 491.078 56.14 490.758 56.14C490.318 56.14 489.966 56.304 489.702 56.632C489.438 56.96 489.306 57.388 489.306 57.916C489.306 58.444 489.438 58.872 489.702 59.2C489.966 59.528 490.318 59.692 490.758 59.692C491.086 59.692 491.358 59.6 491.574 59.416C491.798 59.232 491.942 58.98 492.006 58.66H493.746ZM494.34 57.928C494.34 57.288 494.468 56.732 494.724 56.26C494.988 55.78 495.352 55.412 495.816 55.156C496.288 54.892 496.832 54.76 497.448 54.76C498.072 54.76 498.62 54.884 499.092 55.132C499.572 55.372 499.944 55.716 500.208 56.164C500.48 56.604 500.62 57.124 500.628 57.724C500.628 57.94 500.612 58.132 500.58 58.3H496.104V58.348C496.144 58.796 496.288 59.148 496.536 59.404C496.784 59.66 497.124 59.788 497.556 59.788C497.9 59.788 498.184 59.716 498.408 59.572C498.64 59.42 498.792 59.2 498.864 58.912H500.532C500.468 59.32 500.312 59.688 500.064 60.016C499.816 60.344 499.488 60.604 499.08 60.796C498.672 60.98 498.204 61.072 497.676 61.072C496.988 61.072 496.392 60.944 495.888 60.688C495.392 60.432 495.008 60.068 494.736 59.596C494.472 59.116 494.34 58.56 494.34 57.928ZM498.936 57.196C498.88 56.82 498.724 56.532 498.468 56.332C498.22 56.124 497.904 56.02 497.52 56.02C497.152 56.02 496.84 56.128 496.584 56.344C496.336 56.552 496.188 56.836 496.14 57.196H498.936ZM501.553 52.6H503.245V61H501.553V52.6Z" fill="#777777"/>
<defs>
<filter id="filter0_dddiii_229_87" x="20" y="15" width="137" height="116" filterUnits="userSpaceOnUse" color-interpolation-filters="sRGB">
<feFlood flood-opacity="0" result="BackgroundImageFix"/>
<feColorMatrix in="SourceAlpha" type="matrix" values="0 0 0 0 0 0 0 0 0 0 0 0 0 0 0 0 0 0 127 0" result="hardAlpha"/>
<feMorphology radius="16" operator="erode" in="SourceAlpha" result="effect1_dropShadow_229_87"/>
<feOffset dy="36"/>
<feGaussianBlur stdDeviation="16"/>
<feComposite in2="hardAlpha" operator="out"/>
<feColorMatrix type="matrix" values="0 0 0 0 0.141176 0 0 0 0 0.298039 0 0 0 0 0.294118 0 0 0 0.25 0"/>
<feBlend mode="normal" in2="BackgroundImageFix" result="effect1_dropShadow_229_87"/>
<feColorMatrix in="SourceAlpha" type="matrix" values="0 0 0 0 0 0 0 0 0 0 0 0 0 0 0 0 0 0 127 0" result="hardAlpha"/>
<feMorphology radius="8" operator="erode" in="SourceAlpha" result="effect2_dropShadow_229_87"/>
<feOffset dy="8"/>
<feGaussianBlur stdDeviation="8"/>
<feComposite in2="hardAlpha" operator="out"/>
<feColorMatrix type="matrix" values="0 0 0 0 0.141176 0 0 0 0 0.298039 0 0 0 0 0.294118 0 0 0 0.12 0"/>
<feBlend mode="normal" in2="effect1_dropShadow_229_87" result="effect2_dropShadow_229_87"/>
<feColorMatrix in="SourceAlpha" type="matrix" values="0 0 0 0 0 0 0 0 0 0 0 0 0 0 0 0 0 0 127 0" result="hardAlpha"/>
<feMorphology radius="8" operator="erode" in="SourceAlpha" result="effect3_dropShadow_229_87"/>
<feOffset dy="2"/>
<feGaussianBlur stdDeviation="2"/>
<feComposite in2="hardAlpha" operator="out"/>
<feColorMatrix type="matrix" values="0 0 0 0 0.141176 0 0 0 0 0.298039 0 0 0 0 0.294118 0 0 0 0.08 0"/>
<feBlend mode="normal" in2="effect2_dropShadow_229_87" result="effect3_dropShadow_229_87"/>
<feBlend mode="normal" in="SourceGraphic" in2="effect3_dropShadow_229_87" result="shape"/>
<feColorMatrix in="SourceAlpha" type="matrix" values="0 0 0 0 0 0 0 0 0 0 0 0 0 0 0 0 0 0 127 0" result="hardAlpha"/>
<feMorphology radius="16" operator="dilate" in="SourceAlpha" result="effect4_innerShadow_229_87"/>
<feOffset dy="8"/>
<feGaussianBlur stdDeviation="12"/>
<feComposite in2="hardAlpha" operator="arithmetic" k2="-1" k3="1"/>
<feColorMatrix type="matrix" values="0 0 0 0 1 0 0 0 0 1 0 0 0 0 1 0 0 0 0.26 0"/>
<feBlend mode="normal" in2="shape" result="effect4_innerShadow_229_87"/>
<feColorMatrix in="SourceAlpha" type="matrix" values="0 0 0 0 0 0 0 0 0 0 0 0 0 0 0 0 0 0 127 0" result="hardAlpha"/>
<feOffset dy="-24"/>
<feGaussianBlur stdDeviation="16"/>
<feComposite in2="hardAlpha" operator="arithmetic" k2="-1" k3="1"/>
<feColorMatrix type="matrix" values="0 0 0 0 1 0 0 0 0 1 0 0 0 0 1 0 0 0 0.22 0"/>
<feBlend mode="normal" in2="effect4_innerShadow_229_87" result="effect5_innerShadow_229_87"/>
<feColorMatrix in="SourceAlpha" type="matrix" values="0 0 0 0 0 0 0 0 0 0 0 0 0 0 0 0 0 0 127 0" result="hardAlpha"/>
<feOffset/>
<feGaussianBlur stdDeviation="6"/>
<feComposite in2="hardAlpha" operator="arithmetic" k2="-1" k3="1"/>
<feColorMatrix type="matrix" values="0 0 0 0 1 0 0 0 0 1 0 0 0 0 1 0 0 0 1 0"/>
<feBlend mode="normal" in2="effect5_innerShadow_229_87" result="effect6_innerShadow_229_87"/>
</filter>
<radialGradient id="paint0_radial_229_87" cx="0" cy="0" r="1" gradientUnits="userSpaceOnUse" gradientTransform="translate(88.5 59) scale(52.5 20)">
<stop stop-color="white"/>
<stop offset="1" stop-color="white" stop-opacity="0"/>
</radialGradient>
<linearGradient id="paint1_linear_229_87" x1="236.5" y1="41" x2="236.5" y2="77" gradientUnits="userSpaceOnUse">
<stop stop-color="#68D8D6"/>
<stop offset="1" stop-color="#4EA2A1"/>
</linearGradient>
</defs>
</svg>
