<svg width="32" height="32" viewBox="0 0 32 32" fill="none" xmlns="http://www.w3.org/2000/svg">
<path d="M12.4136 19.5999L14.4136 21.5999L19.7469 16.2666" stroke="#68D8D6" stroke-width="2" stroke-linecap="round" stroke-linejoin="round"/>
<path d="M13.3332 8.00008H18.6665C21.3332 8.00008 21.3332 6.66675 21.3332 5.33341C21.3332 2.66675 19.9998 2.66675 18.6665 2.66675H13.3332C11.9998 2.66675 10.6665 2.66675 10.6665 5.33341C10.6665 8.00008 11.9998 8.00008 13.3332 8.00008Z" stroke="#68D8D6" stroke-width="2" stroke-miterlimit="10" stroke-linecap="round" stroke-linejoin="round"/>
<path d="M21.3333 5.36011C25.7733 5.60011 28 7.24011 28 13.3334V21.3334C28 26.6668 26.6667 29.3334 20 29.3334H12C5.33333 29.3334 4 26.6668 4 21.3334V13.3334C4 7.25344 6.22667 5.60011 10.6667 5.36011" stroke="#68D8D6" stroke-width="2" stroke-miterlimit="10" stroke-linecap="round" stroke-linejoin="round"/>
</svg>
