<svg width="40" height="27" viewBox="0 0 40 27" fill="none" xmlns="http://www.w3.org/2000/svg">
<path d="M32.25 10.0667C31.1167 4.31667 26.0667 0 20 0C15.1833 0 11 2.73333 8.91667 6.73333C3.9 7.26667 0 11.5167 0 16.6667C0 22.1833 4.48333 26.6667 10 26.6667H31.6667C36.2667 26.6667 40 22.9333 40 18.3333C40 13.9333 36.5833 10.3667 32.25 10.0667ZM31.6667 23.3333H10C6.31667 23.3333 3.33333 20.35 3.33333 16.6667C3.33333 13.25 5.88333 10.4 9.26667 10.05L11.05 9.86667L11.8833 8.28333C13.4667 5.23333 16.5667 3.33333 20 3.33333C24.3667 3.33333 28.1333 6.43333 28.9833 10.7167L29.4833 13.2167L32.0333 13.4C34.6333 13.5667 36.6667 15.75 36.6667 18.3333C36.6667 21.0833 34.4167 23.3333 31.6667 23.3333ZM13.3333 15H17.5833V20H22.4167V15H26.6667L20 8.33333L13.3333 15Z" fill="#68D8D6"/>
</svg>
