<svg width="36" height="36" viewBox="0 0 36 36" fill="none" xmlns="http://www.w3.org/2000/svg">
<path d="M18.0006 4.5C18.3984 4.5 18.7799 4.65804 19.0612 4.93934C19.3426 5.22064 19.5006 5.60218 19.5006 6V13.5C19.5006 14.0266 19.6392 14.5439 19.9025 15C20.1658 15.456 20.5445 15.8347 21.0006 16.098V10.8855C21.0006 9.0225 22.4931 7.5 24.3501 7.5C24.9081 7.5 25.4571 7.641 26.0331 7.9605L26.3031 8.136C28.8456 9.981 30.4431 12.6885 31.9626 17.646C32.6366 19.85 32.9826 22.38 33.0006 25.236C33.0246 28.5285 30.5151 31.272 27.2361 31.488L26.8806 31.5C23.6256 31.5 21.0006 28.8195 21.0006 25.53V19.311C19.917 19.0307 18.9335 18.453 18.1611 17.643L18.0006 17.466L17.8401 17.643C17.0681 18.4527 16.0851 19.0305 15.0021 19.311L15.0006 25.53C15.0006 28.8195 12.3756 31.5 9.12209 31.5L8.72009 31.485C5.48759 31.272 2.97959 28.5285 3.00359 25.2375C3.02159 22.3795 3.36759 19.8495 4.04159 17.6475C5.55809 12.687 7.15559 9.9795 9.77459 8.085L10.0566 7.9095C10.5454 7.64024 11.0945 7.49935 11.6526 7.5C13.5081 7.5 15.0006 9.0225 15.0006 10.8855L15.0021 16.098C15.4579 15.8345 15.8363 15.4557 16.0993 14.9997C16.3623 14.5437 16.5007 14.0265 16.5006 13.5V6C16.5006 5.60218 16.6586 5.22064 16.9399 4.93934C17.2212 4.65804 17.6028 4.5 18.0006 4.5Z" fill="#68D8D6"/>
</svg>
