<svg width="32" height="32" viewBox="0 0 32 32" fill="none" xmlns="http://www.w3.org/2000/svg">
<path d="M15.9998 20.6667C18.9465 20.6667 21.3332 18.2801 21.3332 15.3334V8.00008C21.3332 5.05341 18.9465 2.66675 15.9998 2.66675C13.0532 2.66675 10.6665 5.05341 10.6665 8.00008V15.3334C10.6665 18.2801 13.0532 20.6667 15.9998 20.6667Z" stroke="#F0FBFB" stroke-width="2" stroke-linecap="round" stroke-linejoin="round"/>
<path d="M5.80029 12.8667V15.1334C5.80029 20.76 10.3736 25.3334 16.0003 25.3334C21.627 25.3334 26.2003 20.76 26.2003 15.1334V12.8667" stroke="#F0FBFB" stroke-width="2" stroke-linecap="round" stroke-linejoin="round"/>
<path d="M14.147 8.57341C15.347 8.13341 16.6536 8.13341 17.8536 8.57341" stroke="#F0FBFB" stroke-width="2" stroke-linecap="round" stroke-linejoin="round"/>
<path d="M14.9331 11.4C15.6398 11.2133 16.3731 11.2133 17.0798 11.4" stroke="#F0FBFB" stroke-width="2" stroke-linecap="round" stroke-linejoin="round"/>
<path d="M16 25.3333V29.3333" stroke="#F0FBFB" stroke-width="2" stroke-linecap="round" stroke-linejoin="round"/>
</svg>
