<svg width="36" height="36" viewBox="0 0 36 36" fill="none" xmlns="http://www.w3.org/2000/svg">
<path d="M12.0005 4.5V7.5H9.00049V13.5C9.00049 15.0913 9.63263 16.6174 10.7578 17.7426C11.8831 18.8679 13.4092 19.5 15.0005 19.5C16.5918 19.5 18.1179 18.8679 19.2431 17.7426C20.3683 16.6174 21.0005 15.0913 21.0005 13.5V7.5H18.0005V4.5H22.5005C22.8983 4.5 23.2798 4.65804 23.5611 4.93934C23.8425 5.22064 24.0005 5.60218 24.0005 6V13.5C24.0008 15.6271 23.2477 17.6856 21.8748 19.3103C20.5019 20.935 18.5979 22.021 16.5005 22.3755V24.75C16.4993 25.9796 16.9297 27.1705 17.7167 28.1152C18.5037 29.06 19.5972 29.6985 20.8068 29.9195C22.0163 30.1405 23.265 29.93 24.3353 29.3246C25.4055 28.7193 26.2293 27.7575 26.663 26.607C25.6979 26.174 24.9162 25.415 24.4551 24.463C23.9939 23.5111 23.8829 22.4272 24.1414 21.4015C24.3999 20.3758 25.0114 19.474 25.8686 18.8543C26.7258 18.2347 27.774 17.9368 28.829 18.0129C29.8839 18.0891 30.8784 18.5344 31.6377 19.2708C32.397 20.0072 32.8727 20.9875 32.9812 22.0397C33.0897 23.0918 32.8241 24.1486 32.231 25.0244C31.6379 25.9002 30.7552 26.5392 29.738 26.829C29.2317 28.7708 28.0352 30.4617 26.3724 31.5851C24.7096 32.7086 22.6945 33.1878 20.704 32.9329C18.7134 32.6781 16.884 31.7067 15.5578 30.2006C14.2317 28.6945 13.4998 26.7568 13.499 24.75V22.3755C11.4019 22.0207 9.49823 20.9346 8.12561 19.3099C6.75298 17.6852 6.0001 15.6269 6.00049 13.5V6C6.00049 5.60218 6.15852 5.22064 6.43983 4.93934C6.72113 4.65804 7.10266 4.5 7.50049 4.5H12.0005Z" fill="#68D8D6"/>
</svg>
