<svg width="32" height="33" viewBox="0 0 32 33" fill="none" xmlns="http://www.w3.org/2000/svg">
<path d="M27.6167 9.50529L27.2888 10.26C27.2375 10.3828 27.151 10.4878 27.0402 10.5616C26.9294 10.6355 26.7992 10.6749 26.6661 10.6749C26.5329 10.6749 26.4028 10.6355 26.292 10.5616C26.1812 10.4878 26.0947 10.3828 26.0434 10.26L25.7154 9.50529C25.1388 8.17028 24.0826 7.09989 22.7555 6.50534L21.7435 6.05335C21.6207 5.99687 21.5167 5.90638 21.4438 5.79259C21.3709 5.6788 21.3322 5.5465 21.3322 5.41136C21.3322 5.27622 21.3709 5.14391 21.4438 5.03013C21.5167 4.91634 21.6207 4.82584 21.7435 4.76937L22.6995 4.34404C24.06 3.73256 25.1342 2.62258 25.7008 1.24276L26.0394 0.428102C26.089 0.301909 26.1754 0.193569 26.2874 0.117206C26.3994 0.0408436 26.5319 0 26.6674 0C26.803 0 26.9354 0.0408436 27.0474 0.117206C27.1595 0.193569 27.2459 0.301909 27.2954 0.428102L27.6327 1.24142C28.1987 2.6215 29.2724 3.73196 30.6327 4.34404L31.59 4.7707C31.7124 4.82734 31.8161 4.91782 31.8887 5.03146C31.9613 5.1451 31.9999 5.27716 31.9999 5.41202C31.9999 5.54689 31.9613 5.67895 31.8887 5.79259C31.8161 5.90623 31.7124 5.99671 31.59 6.05335L30.5767 6.50401C29.2498 7.09915 28.1942 8.17002 27.6181 9.50529M11.333 8.00132H8.66637V24.0011H11.333V8.00132ZM5.33309 13.3346H2.66646V18.6678H5.33309V13.3346ZM17.3329 2.66807H14.6663V29.3343H17.3329V2.66807ZM23.3328 10.6679H20.6662V24.0011H23.3328V10.6679ZM29.3327 13.3346H26.6661V18.6678H29.3327V13.3346Z" fill="#68D8D6"/>
</svg>
