<svg width="36" height="36" viewBox="0 0 36 36" fill="none" xmlns="http://www.w3.org/2000/svg">
<path d="M13.5 7.5C15.0913 7.5 16.6174 8.13214 17.7426 9.25736C18.8679 10.3826 19.5 11.9087 19.5 13.5C19.5 15.0913 18.8679 16.6174 17.7426 17.7426C16.6174 18.8679 15.0913 19.5 13.5 19.5C11.9087 19.5 10.3826 18.8679 9.25736 17.7426C8.13214 16.6174 7.5 15.0913 7.5 13.5C7.5 11.9087 8.13214 10.3826 9.25736 9.25736C10.3826 8.13214 11.9087 7.5 13.5 7.5ZM13.5 22.5C17.505 22.5 25.5 24.51 25.5 28.5V31.5H1.5V28.5C1.5 24.51 9.495 22.5 13.5 22.5ZM25.14 8.04C28.17 11.34 28.17 15.915 25.14 18.945L22.62 16.41C23.88 14.64 23.88 12.345 22.62 10.575L25.14 8.04ZM30.105 3C36 9.075 35.955 18.165 30.105 24L27.66 21.555C31.815 16.785 31.815 9.975 27.66 5.445L30.105 3Z" fill="#68D8D6"/>
</svg>
